<?xml version="1.0" encoding="utf-8"?>
<!-- Generator: Adobe Illustrator 25.1.0, SVG Export Plug-In . SVG Version: 6.00 Build 0)  -->
<svg version="1.1" id="Capa_1" xmlns="http://www.w3.org/2000/svg" xmlns:xlink="http://www.w3.org/1999/xlink" x="0px" y="0px"
	 viewBox="0 0 800 800" style="enable-background:new 0 0 800 800;" xml:space="preserve">
<style type="text/css">
	.st0{fill:#FFFFFF;}
</style>
<g>
	<g>
		<path class="st0" d="M632.1,95.8H507.5C501.3,42,455.5,0,400,0c-55.5,0-101.3,42-107.5,95.8H167.9c-50.4,0-91.4,41-91.4,91.4v4.7
			c0,38.5,24,71.5,57.8,84.9v431.8c0,50.4,41,91.4,91.4,91.4h348.6c50.4,0,91.4-41,91.4-91.4V276.8c33.8-13.4,57.8-46.4,57.8-84.9
			v-4.7C723.5,136.9,682.5,95.8,632.1,95.8z M400,43.3c31.6,0,57.9,22.6,63.7,52.5H336.3C342.1,66,368.4,43.3,400,43.3z
			 M622.4,708.6c0,26.5-21.6,48.1-48,48.1H225.7c-26.5,0-48-21.6-48-48.1V283.3h444.7V708.6z M680.1,191.9c0,26.5-21.6,48.1-48,48.1
			H167.9c-26.5,0-48-21.6-48-48.1v-4.7c0-26.5,21.6-48.1,48-48.1h464.1c26.5,0,48,21.6,48,48.1L680.1,191.9L680.1,191.9z"/>
		<path class="st0" d="M283.8,701.2c12,0,21.7-9.7,21.7-21.7v-244c0-12-9.7-21.7-21.7-21.7s-21.7,9.7-21.7,21.7v244
			C262.1,691.5,271.8,701.2,283.8,701.2z"/>
		<path class="st0" d="M400,701.2c12,0,21.7-9.7,21.7-21.7v-244c0-12-9.7-21.7-21.7-21.7c-12,0-21.7,9.7-21.7,21.7v244
			C378.3,691.5,388,701.2,400,701.2z"/>
		<path class="st0" d="M516.2,701.2c12,0,21.7-9.7,21.7-21.7v-244c0-12-9.7-21.7-21.7-21.7c-12,0-21.7,9.7-21.7,21.7v244
			C494.5,691.5,504.2,701.2,516.2,701.2z"/>
	</g>
</g>
</svg>
